HIERARCHY
ROOT Hips
{
  OFFSET 5.80788e-005 67.184 3.4734
  CHANNELS 6 Xposition Yposition Zposition Zrotation Xrotation Yrotation
  JOINT Chest
  {
    OFFSET 0 8.7983 -4.7612
    CHANNELS 6 Xposition Yposition Zposition Zrotation Xrotation Yrotation
    JOINT Chest2
    {
      OFFSET 0 8.0291 0.4195
      CHANNELS 6 Xposition Yposition Zposition Zrotation Xrotation Yrotation
      JOINT Chest3
      {
        OFFSET 0 9.9351 -2.2114
        CHANNELS 6 Xposition Yposition Zposition Zrotation Xrotation Yrotation
        JOINT Neck
        {
          OFFSET 0 22.3885 -0.4656
          CHANNELS 6 Xposition Yposition Zposition Zrotation Xrotation Yrotation
          JOINT Head
          {
            OFFSET -0.0001 12.643 3.4389
            CHANNELS 6 Xposition Yposition Zposition Zrotation Xrotation Yrotation
            End Site
            {
              OFFSET 0.0001 17.6655 0.5274
            }
          }
        }
        JOINT LeftCollar
        {
          OFFSET 2.2603 21.606 7.4023
          CHANNELS 6 Xposition Yposition Zposition Zrotation Xrotation Yrotation
          JOINT LeftShoulder
          {
            OFFSET 13.5163 -1.1332 -5.0146
            CHANNELS 6 Xposition Yposition Zposition Zrotation Xrotation Yrotation
            JOINT LeftElbow
            {
              OFFSET -0.0995 -28.05 -0.2431
              CHANNELS 6 Xposition Yposition Zposition Zrotation Xrotation Yrotation
              JOINT LeftWrist
              {
                OFFSET 0.0679 -23.3996 -0.1402
                CHANNELS 6 Xposition Yposition Zposition Zrotation Xrotation Yrotation
                JOINT LeftFinger1
                {
                  OFFSET 0.7932 -9.069 2.5189
                  CHANNELS 6 Xposition Yposition Zposition Zrotation Xrotation Yrotation
                  JOINT LeftFinger11
                  {
                    OFFSET -0.8272 -3.3923 0.5977
                    CHANNELS 6 Xposition Yposition Zposition Zrotation Xrotation Yrotation
                    JOINT LeftFinger12
                    {
                      OFFSET -0.5649 -2.3158 0.4082
                      CHANNELS 6 Xposition Yposition Zposition Zrotation Xrotation Yrotation
                      End Site
                      {
                        OFFSET -0.4919 -1.6479 0.2673
                      }
                    }
                  }
                }
                JOINT LeftFinger2
                {
                  OFFSET 0.9159 -9.2044 0.2193
                  CHANNELS 6 Xposition Yposition Zposition Zrotation Xrotation Yrotation
                  JOINT LeftFinger21
                  {
                    OFFSET 0.0117 -4.1944 -0.0248
                    CHANNELS 6 Xposition Yposition Zposition Zrotation Xrotation Yrotation
                    JOINT LeftFinger22
                    {
                      OFFSET 0.0071 -2.3249 -0.0142
                      CHANNELS 6 Xposition Yposition Zposition Zrotation Xrotation Yrotation
                      End Site
                      {
                        OFFSET -0.1475 -2.0882 0.0028
                      }
                    }
                  }
                }
                JOINT LeftFinger3
                {
                  OFFSET 0.6113 -8.7231 -2.0637
                  CHANNELS 6 Xposition Yposition Zposition Zrotation Xrotation Yrotation
                  JOINT LeftFinger31
                  {
                    OFFSET -0.1927 -3.8059 -0.2383
                    CHANNELS 6 Xposition Yposition Zposition Zrotation Xrotation Yrotation
                    JOINT LeftFinger32
                    {
                      OFFSET -0.1091 -2.1688 -0.1362
                      CHANNELS 6 Xposition Yposition Zposition Zrotation Xrotation Yrotation
                      End Site
                      {
                        OFFSET -0.2358 -1.9176 -0.0906
                      }
                    }
                  }
                }
                JOINT LeftFinger4
                {
                  OFFSET -0.6151 -8.0947 -3.5641
                  CHANNELS 6 Xposition Yposition Zposition Zrotation Xrotation Yrotation
                  JOINT LeftFinger41
                  {
                    OFFSET -0.4882 -2.341 -0.6462
                    CHANNELS 6 Xposition Yposition Zposition Zrotation Xrotation Yrotation
                    JOINT LeftFinger42
                    {
                      OFFSET -0.3575 -1.7167 -0.4742
                      CHANNELS 6 Xposition Yposition Zposition Zrotation Xrotation Yrotation
                      End Site
                      {
                        OFFSET -0.4187 -1.5237 -0.3496
                      }
                    }
                  }
                }
                JOINT LeftFinger0
                {
                  OFFSET -1.42 -1.8761 1.4223
                  CHANNELS 6 Xposition Yposition Zposition Zrotation Xrotation Yrotation
                  JOINT LeftFinger01
                  {
                    OFFSET -1.1471 -3.4929 2.6334
                    CHANNELS 6 Xposition Yposition Zposition Zrotation Xrotation Yrotation
                    JOINT LeftFinger02
                    {
                      OFFSET -0.823 -2.3 1.6571
                      CHANNELS 6 Xposition Yposition Zposition Zrotation Xrotation Yrotation
                      End Site
                      {
                        OFFSET -0.5822 -1.6914 1.1582
                      }
                    }
                  }
                }
              }
            }
          }
        }
        JOINT RightCollar
        {
          OFFSET -2.2603 21.606 7.4023
          CHANNELS 6 Xposition Yposition Zposition Zrotation Xrotation Yrotation
          JOINT RightShoulder
          {
            OFFSET -13.5187 -1.1334 -5.0155
            CHANNELS 6 Xposition Yposition Zposition Zrotation Xrotation Yrotation
            JOINT RightElbow
            {
              OFFSET 0.0994 -28.0499 -0.2431
              CHANNELS 6 Xposition Yposition Zposition Zrotation Xrotation Yrotation
              JOINT RightWrist
              {
                OFFSET -0.0679 -23.3996 -0.1402
                CHANNELS 6 Xposition Yposition Zposition Zrotation Xrotation Yrotation
                JOINT RightFinger1
                {
                  OFFSET -0.7932 -9.0691 2.5189
                  CHANNELS 6 Xposition Yposition Zposition Zrotation Xrotation Yrotation
                  JOINT RightFinger11
                  {
                    OFFSET 0.8272 -3.3923 0.5977
                    CHANNELS 6 Xposition Yposition Zposition Zrotation Xrotation Yrotation
                    JOINT RightFinger12
                    {
                      OFFSET 0.565 -2.3158 0.4082
                      CHANNELS 6 Xposition Yposition Zposition Zrotation Xrotation Yrotation
                      End Site
                      {
                        OFFSET 0.4919 -1.6479 0.2673
                      }
                    }
                  }
                }
                JOINT RightFinger2
                {
                  OFFSET -0.916 -9.2044 0.2193
                  CHANNELS 6 Xposition Yposition Zposition Zrotation Xrotation Yrotation
                  JOINT RightFinger21
                  {
                    OFFSET -0.0117 -4.1944 -0.0248
                    CHANNELS 6 Xposition Yposition Zposition Zrotation Xrotation Yrotation
                    JOINT RightFinger22
                    {
                      OFFSET -0.0071 -2.3249 -0.0142
                      CHANNELS 6 Xposition Yposition Zposition Zrotation Xrotation Yrotation
                      End Site
                      {
                        OFFSET 0.1475 -2.0882 0.0028
                      }
                    }
                  }
                }
                JOINT RightFinger3
                {
                  OFFSET -0.6113 -8.7231 -2.0637
                  CHANNELS 6 Xposition Yposition Zposition Zrotation Xrotation Yrotation
                  JOINT RightFinger31
                  {
                    OFFSET 0.1927 -3.8059 -0.2383
                    CHANNELS 6 Xposition Yposition Zposition Zrotation Xrotation Yrotation
                    JOINT RightFinger32
                    {
                      OFFSET 0.1091 -2.1688 -0.1362
                      CHANNELS 6 Xposition Yposition Zposition Zrotation Xrotation Yrotation
                      End Site
                      {
                        OFFSET 0.2358 -1.9176 -0.0906
                      }
                    }
                  }
                }
                JOINT RightFinger4
                {
                  OFFSET 0.6151 -8.0947 -3.564
                  CHANNELS 6 Xposition Yposition Zposition Zrotation Xrotation Yrotation
                  JOINT RightFinger41
                  {
                    OFFSET 0.4882 -2.341 -0.6462
                    CHANNELS 6 Xposition Yposition Zposition Zrotation Xrotation Yrotation
                    JOINT RightFinger42
                    {
                      OFFSET 0.3574 -1.7166 -0.4742
                      CHANNELS 6 Xposition Yposition Zposition Zrotation Xrotation Yrotation
                      End Site
                      {
                        OFFSET 0.4187 -1.5237 -0.3496
                      }
                    }
                  }
                }
                JOINT RightFinger0
                {
                  OFFSET 1.4199 -1.8761 1.4221
                  CHANNELS 6 Xposition Yposition Zposition Zrotation Xrotation Yrotation
                  JOINT RightFinger01
                  {
                    OFFSET 1.1472 -3.4929 2.6336
                    CHANNELS 6 Xposition Yposition Zposition Zrotation Xrotation Yrotation
                    JOINT RightFinger02
                    {
                      OFFSET 0.8229 -2.3 1.6571
                      CHANNELS 6 Xposition Yposition Zposition Zrotation Xrotation Yrotation
                      End Site
                      {
                        OFFSET 0.5822 -1.6914 1.1582
                      }
                    }
                  }
                }
              }
            }
          }
        }
      }
    }
  }
  JOINT RightHip
  {
    OFFSET -9.412 3.9771 -0.7758
    CHANNELS 6 Xposition Yposition Zposition Zrotation Xrotation Yrotation
    JOINT RightKnee
    {
      OFFSET -0.7531 -40.938 0
      CHANNELS 6 Xposition Yposition Zposition Zrotation Xrotation Yrotation
      JOINT RightAnkle
      {
        OFFSET 0 -40.1986 0
        CHANNELS 6 Xposition Yposition Zposition Zrotation Xrotation Yrotation
        JOINT RightToe
        {
          OFFSET 0 -4.4182 9.239
          CHANNELS 6 Xposition Yposition Zposition Zrotation Xrotation Yrotation
          End Site
          {
            OFFSET 0 0 6.1981
          }
        }
      }
    }
  }
  JOINT LeftHip
  {
    OFFSET 9.4119 3.9773 -0.7758
    CHANNELS 6 Xposition Yposition Zposition Zrotation Xrotation Yrotation
    JOINT LeftKnee
    {
      OFFSET 0.7532 -40.9383 0
      CHANNELS 6 Xposition Yposition Zposition Zrotation Xrotation Yrotation
      JOINT LeftAnkle
      {
        OFFSET 0 -40.1986 0
        CHANNELS 6 Xposition Yposition Zposition Zrotation Xrotation Yrotation
        JOINT LeftToe
        {
          OFFSET 0 -4.4182 9.239
          CHANNELS 6 Xposition Yposition Zposition Zrotation Xrotation Yrotation
          End Site
          {
            OFFSET 0 0 6.1981
          }
        }
      }
    }
  }
}
MOTION
Frames:	4
Frame Time:	0.0333333
-0.00118337 15.0355 -36.853 0.00771997 -70.8934 -179.974 1.73472e-018 8.7983 -4.7612 -0.0881061 0.42626 -0.126221 0 8.0291 0.4195 -0.175282 0.852797 -0.2518 0 9.9351 -2.2114 -0.175282 0.852795 -0.251799 0 22.3885 -0.4656 -0.000141273 2.92363 -0.000218235 -0.0001 12.643 3.4389 -2.57666e-007 4.92176 -1.42351e-007 2.2603 21.606 7.4023 -7.10248 9.53949 -48.5508 13.5163 -1.1332 -5.0146 90.5018 -12.3158 13.1389 -0.0995 -28.05 -0.2431 2.40797 -8.40079 10.5795 0.0679 -23.3996 -0.1402 64.6326 -22.3085 18.3029 0.7932 -9.069 2.5189 3.18055e-015 0 -2.78299e-015 -0.8272 -3.3923 0.5977 -1.63921e-006 2.14828e-006 -4.06622e-007 -0.5649 -2.3158 0.4082 4.56543e-006 6.19817e-006 -2.78272e-007 0.9159 -9.2044 0.2193 3.18055e-015 0 -2.78299e-015 0.0117 -4.1944 -0.0248 -0.0128229 0.00233228 8.9795e-005 0.0071 -2.3249 -0.0142 3.18055e-015 0 3.97569e-016 0.6113 -8.7231 -2.0637 3.18055e-015 0 -2.78299e-015 -0.1927 -3.8059 -0.2383 -0.0160745 0.00299977 0.000852665 -0.1091 -2.1688 -0.1362 2.50042e-006 1.72822e-005 1.3079e-005 -0.6151 -8.0947 -3.5641 3.18055e-015 0 -2.78299e-015 -0.4882 -2.341 -0.6462 -0.0125824 0.0031169 0.00282633 -0.3575 -1.7167 -0.4742 -1.59028e-015 -3.18055e-015 -1.59028e-015 -1.42 -1.8761 1.4223 3.18055e-015 0 -2.78299e-015 -1.1471 -3.4929 2.6334 -1.63921e-006 2.14828e-006 -4.06622e-007 -0.823 -2.3 1.6571 4.56543e-006 6.19817e-006 -2.78272e-007 -2.2603 21.606 7.4023 6.21959 9.18183 42.653 -13.5187 -1.1334 -5.0155 -90.6229 -17.4079 -13.5839 0.0994 -28.0499 -0.2431 -2.30026 -8.18091 -10.7924 -0.0679 -23.3996 -0.1402 -64.5066 -21.3373 -19.3074 -0.7932 -9.0691 2.5189 -5.37408e-006 -1.17638e-005 6.17384e-006 0.8272 -3.3923 0.5977 -0 0 1.19271e-015 0.565 -2.3158 0.4082 5.37408e-006 1.17638e-005 -6.17384e-006 -0.916 -9.2044 0.2193 -5.37408e-006 -1.17638e-005 6.17384e-006 -0.0117 -4.1944 -0.0248 0.0129431 0.0023126 -9.22253e-005 -0.0071 -2.3249 -0.0142 2.52163e-006 -3.27582e-006 4.11742e-006 -0.6113 -8.7231 -2.0637 -5.37408e-006 -1.17638e-005 6.17384e-006 0.1927 -3.8059 -0.2383 0.0163103 0.00303958 -0.000872947 0.1091 -2.1688 -0.1362 -1.65521e-031 -4.77083e-015 -1.98785e-015 0.6151 -8.0947 -3.564 -5.37408e-006 -1.17638e-005 6.17384e-006 0.4882 -2.341 -0.6462 0.0146471 0.00369243 -0.00327311 0.3574 -1.7166 -0.4742 8.82781e-032 3.18055e-015 -1.59028e-015 1.4199 -1.8761 1.4221 -5.37408e-006 -1.17638e-005 6.17384e-006 1.1472 -3.4929 2.6336 -0 0 1.19271e-015 0.8229 -2.3 1.6571 5.37408e-006 1.17638e-005 -6.17384e-006 -9.412 3.9771 -0.7758 -118.741 -57.3092 -132.09 -0.7531 -40.938 -7.10543e-015 -173.867 43.0141 170.702 4.44089e-015 -40.1986 -8.88178e-016 -14.3672 39.7323 3.99381 1.77636e-015 -4.4182 9.239 -5.09586e-006 2.96403e-006 3.54296e-007 9.4119 3.9773 -0.7758 118.751 -57.3253 132.067 0.7532 -40.9383 7.10543e-015 173.865 43.0152 -170.707 2.66454e-015 -40.1986 -1.77636e-015 14.3478 39.7129 -3.97376 0 -4.4182 9.239 1.7736e-006 -5.09403e-009 -3.80797e-007 
-0.000817236 15.1604 -36.639 0.0371733 -71.7179 -179.934 -8.67362e-019 8.7983 -4.7612 -0.0880874 0.401539 -0.126538 -1.38778e-017 8.0291 0.4195 -0.175294 0.803288 -0.252468 0 9.9351 -2.2114 -0.175294 0.803305 -0.252468 0 22.3885 -0.4656 -0.000104997 1.93162 -0.000158242 -0.0001 12.643 3.4389 -5.26049e-008 3.92998 1.32517e-008 2.2603 21.606 7.4023 -7.18237 9.1227 -47.014 13.5163 -1.1332 -5.0146 90.55 -13.4972 13.0658 -0.0995 -28.05 -0.2431 2.83894 -9.52393 10.6074 0.0679 -23.3996 -0.1402 64.3421 -21.7123 17.747 0.7932 -9.069 2.5189 2.56173e-006 1.75855e-005 4.0904e-006 -0.8272 -3.3923 0.5977 -4.91632e-006 2.93907e-006 -1.23049e-006 -0.5649 -2.3158 0.4082 3.1299e-006 1.52794e-005 1.254e-005 0.9159 -9.2044 0.2193 2.56173e-006 1.75855e-005 4.0904e-006 0.0117 -4.1944 -0.0248 -0.0128104 0.00231468 8.18216e-005 0.0071 -2.3249 -0.0142 -7.06043e-006 1.15338e-005 1.4848e-005 0.6113 -8.7231 -2.0637 2.56173e-006 1.75855e-005 4.0904e-006 -0.1927 -3.8059 -0.2383 -0.0160463 0.0029803 0.000845471 -0.1091 -2.1688 -0.1362 -2.71125e-006 1.15639e-005 7.62916e-006 -0.6151 -8.0947 -3.5641 2.56173e-006 1.75855e-005 4.0904e-006 -0.4882 -2.341 -0.6462 -0.0126144 0.00313151 0.00283342 -0.3575 -1.7167 -0.4742 -6.55479e-006 5.80341e-006 -1.64106e-006 -1.42 -1.8761 1.4223 2.56173e-006 1.75855e-005 4.0904e-006 -1.1471 -3.4929 2.6334 -4.91632e-006 2.93907e-006 -1.23049e-006 -0.823 -2.3 1.6571 3.1299e-006 1.52794e-005 1.254e-005 -2.2603 21.606 7.4023 6.29195 8.78656 41.1356 -13.5187 -1.1334 -5.0155 -90.6815 -18.5424 -13.5361 0.0994 -28.0499 -0.2431 -2.73148 -9.30425 -10.8441 -0.0679 -23.3996 -0.1402 -64.2241 -20.7463 -18.7612 -0.7932 -9.0691 2.5189 -3.74221e-006 3.94234e-006 6.58684e-006 0.8272 -3.3923 0.5977 3.74221e-006 2.676e-006 -6.58684e-006 0.565 -2.3158 0.4082 1.63923e-006 2.35162e-006 4.21445e-007 -0.916 -9.2044 0.2193 -3.74221e-006 3.94234e-006 6.58684e-006 -0.0117 -4.1944 -0.0248 0.0129747 0.00230801 -8.54197e-005 -0.0071 -2.3249 -0.0142 -3.18055e-015 6.36111e-015 1.35174e-014 -0.6113 -8.7231 -2.0637 -3.74221e-006 3.94234e-006 6.58684e-006 0.1927 -3.8059 -0.2383 0.0163541 0.00304453 -0.000888544 0.1091 -2.1688 -0.1362 -3.36129e-006 3.58952e-006 4.94743e-006 0.6151 -8.0947 -3.564 -3.74221e-006 3.94234e-006 6.58684e-006 0.4882 -2.341 -0.6462 0.0145622 0.00366602 -0.00325699 0.3574 -1.7166 -0.4742 0 0 -3.18055e-015 1.4199 -1.8761 1.4221 -3.74221e-006 3.94234e-006 6.58684e-006 1.1472 -3.4929 2.6336 3.74221e-006 2.676e-006 -6.58684e-006 0.8229 -2.3 1.6571 1.63923e-006 2.35162e-006 4.21445e-007 -9.412 3.9771 -0.7758 -120.409 -56.9637 -133.845 -0.7531 -40.938 0 -173.872 42.9942 170.699 4.44089e-015 -40.1986 -8.88178e-016 -14.1235 40.0059 3.8703 0 -4.4182 9.239 -1.77453e-006 2.7516e-006 3.78624e-007 9.4119 3.9773 -0.7758 120.419 -56.9793 133.824 0.7532 -40.9383 7.10543e-015 173.87 42.9946 -170.704 -8.88178e-016 -40.1986 -2.66454e-015 14.1046 39.9867 -3.85125 1.77636e-015 -4.4182 9.239 -3.97569e-015 -6.36111e-015 3.18055e-015 
-0.000462008 15.2756 -36.4448 0.066838 -72.4726 -179.894 1.73472e-018 8.7983 -4.7612 -0.0880265 0.379088 -0.126875 0 8.0291 0.4195 -0.175216 0.758367 -0.253172 -5.55111e-017 9.9351 -2.2114 -0.175216 0.758365 -0.253172 -1.11022e-016 22.3885 -0.4656 2.65352e-005 1.02713 3.87063e-005 -0.0001 12.643 3.4389 5.23469e-008 3.02618 -1.34758e-008 2.2603 21.606 7.4023 -7.24688 8.74243 -45.6116 13.5163 -1.1332 -5.0146 90.5949 -14.5741 13.0003 -0.0995 -28.05 -0.2431 3.23183 -10.5482 10.6414 0.0679 -23.3996 -0.1402 64.0845 -21.1669 17.246 0.7932 -9.069 2.5189 2.27346e-006 -3.39953e-006 -1.30134e-007 -0.8272 -3.3923 0.5977 -1.59028e-015 3.18055e-015 2.78299e-015 -0.5649 -2.3158 0.4082 -6.90812e-006 6.95465e-006 3.11585e-006 0.9159 -9.2044 0.2193 2.27346e-006 -3.39953e-006 -1.30134e-007 0.0117 -4.1944 -0.0248 -0.0128267 0.00235061 9.7954e-005 0.0071 -2.3249 -0.0142 -7.95139e-015 -3.18055e-015 -1.19271e-015 0.6113 -8.7231 -2.0637 2.27346e-006 -3.39953e-006 -1.30134e-007 -0.1927 -3.8059 -0.2383 -0.0160452 0.00299651 0.000857595 -0.1091 -2.1688 -0.1362 4.77083e-015 -1.59028e-015 1.59028e-015 -0.6151 -8.0947 -3.5641 2.27346e-006 -3.39953e-006 -1.30134e-007 -0.4882 -2.341 -0.6462 -0.0125924 0.00311647 0.00282658 -0.3575 -1.7167 -0.4742 -4.72228e-006 -4.35484e-007 5.71082e-006 -1.42 -1.8761 1.4223 2.27346e-006 -3.39953e-006 -1.30134e-007 -1.1471 -3.4929 2.6334 -1.59028e-015 3.18055e-015 2.78299e-015 -0.823 -2.3 1.6571 -6.90812e-006 6.95465e-006 3.11585e-006 -2.2603 21.606 7.4023 6.35034 8.42605 39.751 -13.5187 -1.1334 -5.0155 -90.7335 -19.5771 -13.4932 0.0994 -28.0499 -0.2431 -3.12793 -10.3284 -10.8998 -0.0679 -23.3996 -0.1402 -63.9735 -20.2057 -18.2688 -0.7932 -9.0691 2.5189 5.2867e-006 9.28044e-006 -1.31367e-005 0.8272 -3.3923 0.5977 -4.81577e-006 1.06252e-006 5.70725e-006 0.565 -2.3158 0.4082 1.0429e-006 1.59935e-005 -7.88039e-006 -0.916 -9.2044 0.2193 5.2867e-006 9.28044e-006 -1.31367e-005 -0.0117 -4.1944 -0.0248 0.0129375 0.00232917 -8.6792e-005 -0.0071 -2.3249 -0.0142 1.59028e-015 3.18055e-015 3.97569e-016 -0.6113 -8.7231 -2.0637 5.2867e-006 9.28044e-006 -1.31367e-005 0.1927 -3.8059 -0.2383 0.0163566 0.00304545 -0.000867029 0.1091 -2.1688 -0.1362 1.59028e-015 0 -3.97569e-016 0.6151 -8.0947 -3.564 5.2867e-006 9.28044e-006 -1.31367e-005 0.4882 -2.341 -0.6462 0.0146266 0.00369544 -0.00326412 0.3574 -1.7166 -0.4742 -3.31043e-032 4.77083e-015 3.97569e-016 1.4199 -1.8761 1.4221 5.2867e-006 9.28044e-006 -1.31367e-005 1.1472 -3.4929 2.6336 -4.81577e-006 1.06252e-006 5.70725e-006 0.8229 -2.3 1.6571 1.0429e-006 1.59935e-005 -7.88039e-006 -9.412 3.9771 -0.7758 -121.898 -56.6259 -135.414 -0.7531 -40.938 0 -173.876 42.9761 170.696 1.77636e-015 -40.1986 1.77636e-015 -13.9001 40.2546 3.75597 1.77636e-015 -4.4182 9.239 -3.97569e-015 -1.59555e-008 -2.38542e-015 9.4119 3.9773 -0.7758 121.909 -56.641 135.394 0.7532 -40.9383 0 173.874 42.9761 -170.701 -4.44089e-015 -40.1986 0 13.8818 40.2357 -3.7379 1.77636e-015 -4.4182 9.239 2.38542e-015 3.20777e-008 3.97569e-015 
-8.67165e-005 15.3917 -36.2516 0.0996129 -73.2274 -179.851 1.73472e-018 8.7983 -4.7612 -0.087948 0.356449 -0.127152 0 8.0291 0.4195 -0.175107 0.713103 -0.25376 5.55112e-017 9.9351 -2.2114 -0.175107 0.713112 -0.25376 0 22.3885 -0.4656 1.99887e-005 0.122236 2.89452e-005 -0.0001 12.643 3.4389 7.32801e-008 2.12126 2.41757e-007 2.2603 21.606 7.4023 -7.30204 8.3598 -44.2067 13.5163 -1.1332 -5.0146 90.6367 -15.6534 12.9347 -0.0995 -28.05 -0.2431 3.62963 -11.574 10.6827 0.0679 -23.3996 -0.1402 63.8327 -20.6189 16.7491 0.7932 -9.069 2.5189 2.20695e-032 -1.59028e-015 7.95139e-016 -0.8272 -3.3923 0.5977 7.1863e-007 3.80223e-006 -6.4014e-006 -0.5649 -2.3158 0.4082 -1.59028e-015 1.59028e-015 -2.38542e-015 0.9159 -9.2044 0.2193 2.20695e-032 -1.59028e-015 7.95139e-016 0.0117 -4.1944 -0.0248 -0.0128198 0.0023358 8.95225e-005 0.0071 -2.3249 -0.0142 -6.62086e-032 1.59028e-015 2.38542e-015 0.6113 -8.7231 -2.0637 2.20695e-032 -1.59028e-015 7.95139e-016 -0.1927 -3.8059 -0.2383 -0.016027 0.0030003 0.000854168 -0.1091 -2.1688 -0.1362 2.20695e-032 1.59028e-015 -7.95139e-016 -0.6151 -8.0947 -3.5641 2.20695e-032 -1.59028e-015 7.95139e-016 -0.4882 -2.341 -0.6462 -0.0126232 0.00312941 0.00283366 -0.3575 -1.7167 -0.4742 -1.59028e-015 1.59028e-015 7.95139e-016 -1.42 -1.8761 1.4223 2.20695e-032 -1.59028e-015 7.95139e-016 -1.1471 -3.4929 2.6334 7.1863e-007 3.80223e-006 -6.4014e-006 -0.823 -2.3 1.6571 -1.59028e-015 1.59028e-015 -2.38542e-015 -2.2603 21.606 7.4023 6.39975 8.06345 38.3636 -13.5187 -1.1334 -5.0155 -90.7849 -20.6135 -13.4508 0.0994 -28.0499 -0.2431 -3.52775 -11.3539 -10.9631 -0.0679 -23.3996 -0.1402 -63.7286 -19.6627 -17.7803 -0.7932 -9.0691 2.5189 -7.73687e-007 6.98609e-006 3.27637e-006 0.8272 -3.3923 0.5977 7.95139e-016 -1.59028e-015 -1.19271e-015 0.565 -2.3158 0.4082 7.73686e-007 -6.98609e-006 -3.27637e-006 -0.916 -9.2044 0.2193 -7.73687e-007 6.98609e-006 3.27637e-006 -0.0117 -4.1944 -0.0248 0.0129588 0.00232332 -8.44098e-005 -0.0071 -2.3249 -0.0142 7.95139e-016 -1.59028e-015 -3.57812e-015 -0.6113 -8.7231 -2.0637 -7.73687e-007 6.98609e-006 3.27637e-006 0.1927 -3.8059 -0.2383 0.0163509 0.00305117 -0.000890405 0.1091 -2.1688 -0.1362 -8.28434e-006 -1.45061e-005 1.64311e-005 0.6151 -8.0947 -3.564 -7.73687e-007 6.98609e-006 3.27637e-006 0.4882 -2.341 -0.6462 0.0145273 0.00365837 -0.00324496 0.3574 -1.7166 -0.4742 7.95139e-016 0 -1.19271e-015 1.4199 -1.8761 1.4221 -7.73687e-007 6.98609e-006 3.27637e-006 1.1472 -3.4929 2.6336 7.95139e-016 -1.59028e-015 -1.19271e-015 0.8229 -2.3 1.6571 7.73686e-007 -6.98609e-006 -3.27637e-006 -9.412 3.9771 -0.7758 -123.359 -56.2658 -136.954 -0.7531 -40.938 -7.10543e-015 -173.88 42.9579 170.692 0 -40.1986 2.66454e-015 -13.675 40.5029 3.63979 0 -4.4182 9.239 -1.77567e-006 3.93899e-006 3.74513e-007 9.4119 3.9773 -0.7758 123.37 -56.2803 136.935 0.7532 -40.9383 0 173.879 42.9575 -170.698 2.66454e-015 -40.1986 1.77636e-015 13.6574 40.4844 -3.62269 1.77636e-015 -4.4182 9.239 -2.80587e-006 1.29441e-006 -9.68882e-007 
